PathFileType	4	(X/Y/Z)	C:\Users\Caesar\Desktop\毕业设计\1-评估老年人缺少的力\Data\s2\T_01_fixed.trc	Maker trajectories (.TRC) by Lee-Son ToolBox																																																																											
DataRate	CameraRate	NumFrames	NumMarkers	Units	OrigDataRate	OrigDataStartFrame	OrigNumFrames																																																																								
100	100	6	26	mm	100	1	1000																																																																								
Frame#	Time	HEAD			C7			T10			STERN			LSHO			LELB			RSHO			RELB			LASI			RASI			LPSI			RPSI			LHIP			LTHI			LKNE			LTIB			LANK			LHEE			LTOE			RHIP			RTHI			RKNE			RTIB			RANK			RHEE			RTOE		
		X1	Y1	Z1	X2	Y2	Z2	X3	Y3	Z3	X4	Y4	Z4	X5	Y5	Z5	X6	Y6	Z6	X7	Y7	Z7	X8	Y8	Z8	X9	Y9	Z9	X10	Y10	Z10	X11	Y11	Z11	X12	Y12	Z12	X13	Y13	Z13	X14	Y14	Z14	X15	Y15	Z15	X16	Y16	Z16	X17	Y17	Z17	X18	Y18	Z18	X19	Y19	Z19	X20	Y20	Z20	X21	Y21	Z21	X22	Y22	Z22	X23	Y23	Z23	X24	Y24	Z24	X25	Y25	Z25	X26	Y26	Z26
																																																																															
1	0	1079.99	1658.2	1559.79	864.567	1519.78	1549.6	778.092	1358.13	1577.31	1012.37	1366.33	1549.5	891.036	1487.83	1403.36	966.264	1159.52	1288.95	935.146	1498.94	1718.43	953.051	1144.51	1807.56	952.442	1073.18	1439.69	943.784	1047.87	1690.98	779.805	1103.56	1512.98	787.868	1087.86	1626.62	890.144	988.878	1386.39	1041.17	763.255	1431.22	1033.12	606.628	1437.42	1047.45	413.855	1459.37	1005.7	260.411	1474.99	957.767	230.006	1487.19	1182.4	232.282	1523.22	896.2	964.613	1720.71	930.228	805.763	1708.02	872.587	599.767	1686.05	806.688	522.977	1692.3	550.552	401.457	1673.33	499.97	424.785	1656.09	619.358	234.947	1623.55
2	0.01	1080	1660.07	1559.93	864.54	1521.84	1549.7	777.914	1360.31	1576.93	1012.16	1368.18	1549.56	891.371	1489.97	1403.55	966.298	1161.91	1288.79	934.96	1500.53	1718.57	952.923	1146.31	1807.5	951.581	1075.09	1438.83	943.375	1049.89	1690.19	779.133	1105.81	1512.63	787.39	1090.04	1626.25	888.53	990.752	1385.95	1036.87	763.281	1430.68	1026.97	606.786	1437.15	1040.78	413.993	1459.07	999.306	260.474	1475.03	951.366	230.048	1487.19	1175.98	232.453	1523.22	896.118	966.75	1720.12	933.043	808.44	1707.69	878.603	602.049	1686.02	812.909	525.34	1692.13	556.284	404.45	1673.56	505.517	427.617	1656.43	625.692	237.684	1624.53
3	0.02	1080	1662.56	1560.14	864.502	1524.56	1549.84	777.675	1363.22	1576.44	1011.88	1370.66	1549.65	891.828	1492.84	1403.78	966.377	1165.13	1288.59	934.685	1502.66	1718.77	952.785	1148.7	1807.38	950.373	1077.61	1437.71	942.814	1052.65	1689.14	778.213	1108.81	1512.19	786.741	1092.98	1625.8	886.296	993.201	1385.42	1031.06	763.342	1430	1018.65	607.027	1436.82	1031.85	414.209	1458.7	990.79	260.565	1475.07	942.865	230.107	1487.19	1167.43	232.695	1523.22	896.018	969.677	1719.38	936.716	812.174	1707.24	886.457	605.267	1685.97	821.165	528.54	1691.92	564.222	407.831	1673.85	513.185	430.664	1656.84	634.76	240.934	1625.72
4	0.03	1079.99	1665.61	1560.45	864.449	1527.9	1550.02	777.377	1366.77	1575.82	1011.57	1373.73	1549.75	892.403	1496.41	1404.04	966.516	1169.14	1288.36	934.315	1505.29	1719.03	952.653	1151.64	1807.2	948.812	1080.65	1436.36	942.101	1056.13	1687.88	777.052	1112.47	1511.69	785.928	1096.63	1625.28	883.443	996.15	1384.82	1023.77	763.448	1429.2	1008.24	607.362	1436.43	1020.79	414.513	1458.25	980.306	260.684	1475.11	932.428	230.183	1487.2	1156.9	233.009	1523.2	895.907	973.373	1718.54	941.131	816.975	1706.67	895.911	609.447	1685.89	831.29	532.531	1691.7	574.392	411.199	1674.17	522.994	433.469	1657.3	646.741	244.423	1627.07
5	0.04	1079.95	1669.08	1560.85	864.377	1531.71	1550.24	777.028	1370.85	1575.12	1011.24	1377.3	1549.86	893.081	1500.56	1404.31	966.732	1173.82	1288.1	933.846	1508.34	1719.34	952.546	1155.02	1806.96	946.921	1084.09	1434.83	941.246	1060.24	1686.45	775.672	1116.67	1511.16	784.97	1100.87	1624.74	880.019	999.469	1384.21	1015.16	763.596	1428.32	995.981	607.792	1436	1007.9	414.909	1457.77	968.155	260.831	1475.15	920.373	230.272	1487.21	1144.7	233.388	1523.17	895.796	977.751	1717.65	946.098	822.768	1706.01	906.581	614.538	1685.76	842.964	537.193	1691.46	586.681	414.089	1674.49	534.832	435.514	1657.76	661.645	247.824	1628.48
6	0.05	1079.87	1672.85	1561.35	864.279	1535.83	1550.5	776.64	1375.28	1574.33	1010.92	1381.22	1549.97	893.843	1505.13	1404.59	967.035	1179.01	1287.83	933.283	1511.68	1719.7	952.478	1158.72	1806.65	944.744	1087.76	1433.18	940.27	1064.82	1684.91	774.111	1121.24	1510.63	783.895	1105.55	1624.2	876.105	1003	1383.62	1005.43	763.769	1427.41	982.211	608.309	1435.56	993.552	415.392	1457.25	954.705	261.002	1475.18	907.085	230.369	1487.23	1131.21	233.821	1523.13	895.695	982.673	1716.76	951.391	829.41	1705.26	918.021	620.421	1685.56	855.8	542.35	1691.22	600.896	416.049	1674.79	548.518	436.308	1658.2	679.354	250.822	1629.87
